<?xml version="1.0" encoding="UTF-8" standalone="no"?>
<svg
   aria-hidden="true"
   focusable="false"
   data-prefix="fas"
   data-icon="times"
   class="svg-inline--fa fa-times fa-w-11"
   role="img"
   viewBox="0 0 279.733 274.66995"
   version="1.1"
   id="svg19"
   sodipodi:docname="times-solid.svg"
   width="279.733"
   height="274.66995"
   inkscape:export-filename="C:\projects\alyvix_server_doc_bootstrap\_static\icons\custom\times-solid.png"
   inkscape:export-xdpi="14.07056"
   inkscape:export-ydpi="14.07056"
   inkscape:version="1.1 (c68e22c387, 2021-05-23)"
   xmlns:inkscape="http://www.inkscape.org/namespaces/inkscape"
   xmlns:sodipodi="http://sodipodi.sourceforge.net/DTD/sodipodi-0.dtd"
   xmlns="http://www.w3.org/2000/svg"
   xmlns:svg="http://www.w3.org/2000/svg">
  <defs
     id="defs23" />
  <sodipodi:namedview
     id="namedview21"
     pagecolor="#ffffff"
     bordercolor="#111111"
     borderopacity="1"
     inkscape:pageshadow="0"
     inkscape:pageopacity="0"
     inkscape:pagecheckerboard="1"
     showgrid="false"
     inkscape:zoom="1.5800781"
     inkscape:cx="182.58591"
     inkscape:cy="154.10631"
     inkscape:window-width="1920"
     inkscape:window-height="1017"
     inkscape:window-x="-8"
     inkscape:window-y="-8"
     inkscape:window-maximized="1"
     inkscape:current-layer="svg19" />
  <ellipse
     style="fill:#0078e8;fill-opacity:1"
     id="path1393"
     cx="139.8665"
     cy="137.33498"
     rx="139.8665"
     ry="137.33498"
     inkscape:export-filename="C:\projects\alyvix_server_doc_bootstrap\_static\icons\custom\path1393.png"
     inkscape:export-xdpi="14.07056"
     inkscape:export-ydpi="14.07056" />
  <path
     style="fill:#ffffff;stroke-width:0.303782"
     d="m 76.733475,221.70406 c -2.70676,-0.86602 -4.2613,-2.13699 -11.5228,-9.42089 -7.113798,-7.13575 -8.128415,-8.4542 -8.986772,-11.67796 -0.610881,-2.2943 -0.530527,-5.55958 0.194588,-7.90723 0.452715,-1.46572 1.122817,-2.63382 2.501705,-4.3609 1.035849,-1.29742 12.513979,-13.03306 25.506949,-26.07921 12.99297,-13.04615 23.623585,-23.83193 23.623585,-23.9684 0,-0.13646 -11.192605,-11.48464 -24.872455,-25.21815 C 60.509332,90.313441 58.223219,87.928211 57.373463,86.147711 c -2.168687,-4.54408 -2.120681,-9.19232 0.13791,-13.35321 0.974474,-1.79523 8.810462,-10.03544 13.566542,-14.26639 3.67363,-3.26802 5.19073,-3.94012 9.39774,-4.1634 3.95805,-0.21006 6.35919,0.52491 9.09911,2.78517 1.0559,0.87105 12.693195,12.2716 25.860655,25.33455 13.16745,13.06296 24.13245,23.750819 24.36664,23.750819 0.23419,0 11.0107,-10.506859 23.9478,-23.348579 12.9371,-12.84173 24.4798,-24.17295 25.65046,-25.1805 2.7454,-2.3629 4.76779,-3.15963 8.49915,-3.3483 2.35882,-0.11926 3.16418,-0.0301 4.96901,0.55025 3.05509,0.98234 5.02348,2.54633 11.98642,9.52385 5.66381,5.67566 6.19353,6.30122 7.40337,8.74277 1.16468,2.35044 1.31954,2.91863 1.45818,5.35017 0.17397,3.05112 -0.21145,5.18383 -1.34598,7.44792 -0.92512,1.8462 -2.8977,3.89861 -29.03024,30.205009 -11.82235,11.90102 -21.49519,21.837 -21.49519,22.07995 0,0.24295 10.55025,11.07943 23.44499,24.08105 12.89474,13.00162 24.29263,24.63163 25.32863,25.84447 2.54535,2.97985 3.30561,5.2458 3.10606,9.25753 -0.17126,3.44309 -0.94666,5.73981 -2.73077,8.08854 -1.79536,2.36355 -11.82569,12.35738 -14.10203,14.05071 -2.73205,2.03232 -5.39847,2.81235 -8.99245,2.63064 -3.73136,-0.18867 -5.75375,-0.98539 -8.49915,-3.3483 -1.17066,-1.00755 -12.71336,-12.33877 -25.65046,-25.1805 -12.9371,-12.84172 -23.7241,-23.34858 -23.97112,-23.34858 -0.24702,0 -9.50323,8.99348 -20.56936,19.98552 -31.676605,31.46451 -30.694155,30.56318 -34.384905,31.54607 -2.15507,0.57392 -6.03551,0.49677 -8.091,-0.16088 z"
     id="path810" />
</svg>
